<svg width="1440" height="911" viewBox="0 0 1440 911" fill="none" xmlns="http://www.w3.org/2000/svg">
<path d="M321.55 116.5C316.875 116.5 312.2 117.5 308.075 119.75C302.85 122.5 299.55 128.25 298.175 133.25C297.075 136.75 296.8 140.75 297.9 144.25C299.825 152.25 306.7 159 315.225 160.75C319.075 161.5 323.2 161.25 327.325 160.5C327.875 160.5 328.425 160.25 328.7 160C329.525 159.25 329.25 158 328.7 157C328.425 156.75 328.425 156.25 328.15 156.25C327.6 156 327.05 156 326.5 156C320.45 157 313.85 155.75 308.9 152.5C303.95 149.25 300.65 144 301.2 138.25C301.475 133.25 304.775 128.75 308.9 125.75C313.85 122 321 119.75 327.325 121.75C330.9 122.75 333.65 125 335.85 127.5C338.05 130.25 339.425 133.25 339.975 136.5C339.975 137 340.25 137.5 340.25 138C340.25 138.5 340.525 139 340.525 139.75C340.525 140.25 340.525 140.75 340.525 141.5C340.25 145.25 338.05 148.75 335.025 151.25C334.475 151.75 333.65 152 333.375 151.5C333.1 151.25 333.1 151 333.1 150.75C332.55 148.5 332.55 146.25 332.55 144.25C332.55 141.75 332.825 139 332.275 136.5C331.725 134.25 330.625 132 328.7 130.5C326.775 129 324.3 128 321.55 128C319.075 128 316.875 129 314.95 130.25C312.475 132 310.275 134.25 309.725 137C309.175 139.75 310.275 142.75 312.2 145C313.85 147 316.05 149 318.525 149.5C321.275 150 324.025 149 326.775 148C326.5 151.5 328.7 155.25 332.275 156C334.75 156.5 337.225 155.75 339.15 154.5C341.075 153.25 342.45 151.25 343.55 149.25C346.85 143 346.85 135.5 343.55 129.25C340.25 123 333.65 118.25 326.225 116.75C324.575 116.5 322.925 116.5 321.55 116.5ZM321 144.5C317.425 144.5 314.95 142.25 314.95 139C314.675 135.75 317.15 133.75 320.45 133.5C323.75 133.5 326.5 136 326.775 139C327.05 142.25 324.3 144.75 321 144.5Z" fill="black"/>
<path d="M1275.45 317.978C1278.3 313.35 1279.79 307.89 1279.63 302.525C1280.27 293.495 1276.98 285.61 1271.08 279.961L1272.22 278.696C1275.51 278.632 1278.81 278.862 1282.06 279.39C1285.08 276.535 1288.34 273.446 1291.32 270.54C1291.21 270.263 1291.09 269.938 1290.96 269.616C1291.04 269.5 1291.1 269.365 1291.12 269.223C1291.14 269.081 1291.12 268.936 1291.07 268.802C1291.01 268.669 1290.93 268.55 1290.82 268.457C1290.71 268.364 1290.58 268.3 1290.44 268.27C1288.05 267.716 1283.74 267.129 1281.19 266.59C1280.42 264.242 1279.33 259.952 1278.57 257.823C1278.52 257.682 1278.44 257.557 1278.33 257.458C1278.22 257.358 1278.09 257.288 1277.94 257.254C1277.8 257.219 1277.65 257.221 1277.5 257.259C1277.36 257.298 1277.23 257.371 1277.12 257.473C1274.01 260.42 1271.51 264.347 1269.06 267.832C1268.98 267.941 1268.93 268.066 1268.91 268.197C1268.89 268.329 1268.9 268.464 1268.93 268.592C1269.55 270.755 1270.98 274.193 1271.74 276.564C1271.08 277.298 1270.41 278.03 1269.75 278.762C1261.31 271.62 1249.14 269.133 1238.41 273.621C1238.09 273.686 1237.79 273.783 1237.49 273.909C1228.48 278.157 1221.77 286.977 1220.09 296.794C1218.4 306.613 1222.12 316.821 1229.19 323.834C1242.2 336.725 1266.03 333.303 1275.45 317.978ZM1288.44 269.683C1286.31 271.827 1283.53 274.674 1281.45 276.757C1279.2 276.615 1276.77 276.534 1274.33 276.21C1275.84 274.526 1281.12 268.687 1281.3 268.435C1283.39 268.852 1286.26 269.276 1288.44 269.683ZM1277.34 259.787C1278.04 262.069 1278.99 265.731 1279.66 267.618L1273.08 274.931C1272.35 272.848 1271.31 270.257 1270.77 268.505C1272.8 265.607 1274.91 262.37 1277.34 259.787ZM1268.55 280.092C1267.15 281.636 1265.75 283.175 1264.34 284.709C1256.16 277.77 1243.88 277.724 1236.07 284.792C1229.15 291.065 1227.04 301.516 1231.07 309.642C1234.53 316.623 1243.1 321.784 1251.01 321.784C1269.87 321.784 1278.19 298.502 1265.66 285.91C1267.07 284.375 1268.48 282.835 1269.88 281.289C1282.02 292.956 1279.6 312.617 1268.09 322.081C1252.28 335.088 1223.9 324.927 1222.64 301.7C1221.76 276.485 1250.12 264.554 1268.55 280.092ZM1253.58 296.182C1251.42 294.508 1249.46 295.293 1249.34 295.292C1247.01 295.996 1245.5 298.741 1246.17 301.09C1246.83 303.439 1249.55 304.985 1251.91 304.356C1254.55 303.653 1256.41 300.251 1254.77 297.518C1256.09 296.144 1257.4 294.764 1258.71 293.38C1266.3 301.867 1257.23 315.458 1245.89 310.339C1242.74 308.916 1240.47 306.333 1239.65 303.254C1238.52 298.996 1239.86 294.56 1243.06 291.953C1247.21 288.576 1253.18 288.701 1257.42 292.146C1256.14 293.496 1254.86 294.841 1253.58 296.182ZM1258.66 290.828C1253.9 286.885 1246.89 286.542 1241.93 290.567C1238.18 293.616 1236.61 298.776 1237.92 303.713C1239.44 309.433 1245.09 313.209 1250.8 313.209C1261.7 313.209 1267.21 299.975 1259.95 292.059C1261.46 290.455 1262.96 288.844 1264.45 287.227C1268.03 290.855 1269.8 295.355 1269.84 300.365C1269.93 314.003 1257.5 322.995 1245.43 319.129C1239.73 317.3 1234.96 313.458 1232.67 308.849C1228.99 301.423 1230.93 291.863 1237.27 286.117C1244.42 279.641 1255.66 279.734 1263.13 286.021C1261.65 287.63 1260.15 289.232 1258.65 290.828H1258.66ZM1222.61 273.915C1222.5 273.866 1222.39 273.838 1222.27 273.833C1222.15 273.828 1222.03 273.846 1221.92 273.886C1221.81 273.926 1221.71 273.988 1221.63 274.067C1221.54 274.146 1221.47 274.242 1221.42 274.348C1221.37 274.455 1221.34 274.57 1221.34 274.687C1221.33 274.804 1221.35 274.921 1221.39 275.031C1221.43 275.142 1221.49 275.243 1221.57 275.329C1221.65 275.416 1221.75 275.486 1221.85 275.535L1227.41 278.12C1227.62 278.214 1227.87 278.221 1228.09 278.138C1228.3 278.056 1228.48 277.891 1228.58 277.679C1228.68 277.467 1228.69 277.225 1228.61 277.004C1228.53 276.784 1228.37 276.603 1228.16 276.5L1222.61 273.915ZM1231.36 274.779C1231.54 274.624 1231.65 274.405 1231.67 274.169C1231.69 273.933 1231.61 273.699 1231.46 273.52C1230.31 272.201 1229.43 270.681 1228.84 269.037C1228.76 268.82 1228.59 268.643 1228.38 268.546C1228.17 268.449 1227.93 268.438 1227.71 268.517C1227.49 268.595 1227.31 268.757 1227.2 268.966C1227.1 269.176 1227.09 269.418 1227.16 269.639C1227.82 271.49 1228.82 273.201 1230.1 274.687C1230.26 274.866 1230.48 274.976 1230.71 274.994C1230.95 275.011 1231.18 274.934 1231.36 274.779Z" fill="black"/>
<path d="M1235.92 266.478C1235.69 266.43 1235.45 266.477 1235.25 266.608C1235.05 266.739 1234.92 266.942 1234.87 267.174C1234.54 268.799 1234.54 270.474 1234.87 272.099C1234.92 272.331 1235.05 272.535 1235.25 272.665C1235.45 272.796 1235.69 272.843 1235.92 272.795C1236.16 272.747 1236.36 272.61 1236.49 272.412C1236.62 272.214 1236.67 271.972 1236.62 271.74C1236.34 270.352 1236.34 268.921 1236.62 267.533C1236.64 267.418 1236.64 267.299 1236.62 267.184C1236.6 267.069 1236.55 266.959 1236.49 266.861C1236.43 266.763 1236.34 266.678 1236.24 266.613C1236.15 266.547 1236.04 266.501 1235.92 266.478Z" fill="black"/>
<path d="M161.297 267.332C161.589 267.426 161.903 267.429 162.197 267.34C162.491 267.252 162.751 267.077 162.942 266.837C163.125 266.59 163.228 266.294 163.238 265.988C163.249 265.681 163.166 265.378 163 265.12C162.21 263.937 160.307 264.51 160.3 265.932C160.305 266.239 160.403 266.537 160.581 266.787C160.759 267.037 161.009 267.227 161.297 267.332ZM169.014 289.242C169.196 289.169 169.342 289.028 169.421 288.848C169.5 288.669 169.505 288.466 169.436 288.282C168.38 285.467 167.106 282.586 166.051 279.772C165.989 279.603 165.867 279.462 165.709 279.376C165.551 279.29 165.367 279.263 165.191 279.302C161.91 280.004 158.735 281.136 155.75 282.669C155.581 282.756 155.45 282.905 155.386 283.084C155.322 283.264 155.329 283.461 155.405 283.636C156.672 286.531 157.911 289.883 159.088 292.246C159.166 292.402 159.295 292.526 159.454 292.596C159.613 292.667 159.792 292.68 159.959 292.634C163.086 291.771 165.997 290.461 169.014 289.242ZM160.159 291.017C159.184 288.957 158.136 286.202 157.062 283.688C159.554 282.468 162.176 281.536 164.878 280.908C165.821 283.364 166.837 285.7 167.772 288.128C165.155 289.199 162.737 290.252 160.159 291.018V291.017ZM171.933 293.772C171.87 293.604 171.749 293.463 171.591 293.377C171.433 293.291 171.249 293.264 171.073 293.302C167.792 294.004 164.617 295.136 161.631 296.668C161.462 296.755 161.332 296.904 161.268 297.084C161.204 297.263 161.211 297.46 161.287 297.635C162.548 300.519 163.802 303.902 164.97 306.245C165.048 306.401 165.177 306.525 165.335 306.596C165.494 306.667 165.673 306.681 165.84 306.635C168.992 305.764 171.928 304.438 174.896 303.242C175.078 303.169 175.224 303.027 175.302 302.848C175.381 302.668 175.386 302.465 175.317 302.282C174.257 299.455 172.982 296.57 171.933 293.772ZM166.04 305.017C165.061 302.95 164.024 300.219 162.942 297.687C165.435 296.469 168.057 295.536 170.759 294.907C171.686 297.325 172.73 299.732 173.653 302.127C171.126 303.16 168.662 304.238 166.04 305.017Z" fill="black"/>
<path d="M165.044 282.971C164.864 282.887 164.658 282.877 164.471 282.944C164.283 283.011 164.13 283.149 164.045 283.328L162.545 286.49L160.553 285.87C160.458 285.838 160.358 285.825 160.258 285.832C160.158 285.84 160.061 285.867 159.972 285.912C159.882 285.958 159.803 286.021 159.739 286.097C159.674 286.174 159.626 286.262 159.596 286.358C159.567 286.453 159.556 286.554 159.566 286.654C159.576 286.753 159.605 286.85 159.653 286.938C159.701 287.026 159.765 287.103 159.843 287.166C159.922 287.228 160.011 287.275 160.108 287.302L162.329 287.994C163.016 288.203 163.499 287.984 163.77 287.409L165.4 283.97C165.485 283.79 165.495 283.584 165.428 283.397C165.362 283.209 165.223 283.056 165.044 282.971ZM171.664 300.61C170.928 300.272 170.182 299.955 169.429 299.66C169.733 298.903 170.025 298.131 170.323 297.302C170.383 297.117 170.369 296.915 170.283 296.74C170.197 296.565 170.047 296.43 169.863 296.364C169.68 296.298 169.478 296.306 169.3 296.387C169.122 296.467 168.983 296.613 168.912 296.795C168.609 297.636 168.322 298.395 168.025 299.133C167.17 298.827 166.307 298.549 165.435 298.299C165.34 298.272 165.241 298.264 165.143 298.275C165.045 298.287 164.95 298.317 164.864 298.365C164.778 298.413 164.703 298.478 164.641 298.555C164.58 298.632 164.535 298.721 164.508 298.815C164.481 298.91 164.473 299.009 164.485 299.107C164.496 299.205 164.526 299.3 164.574 299.386C164.622 299.472 164.687 299.547 164.764 299.609C164.841 299.67 164.93 299.715 165.025 299.742C165.833 299.972 166.633 300.234 167.428 300.514C167.095 301.234 166.737 301.948 166.292 302.692C166.189 302.863 166.159 303.067 166.208 303.26C166.257 303.453 166.38 303.619 166.551 303.721C166.721 303.823 166.926 303.853 167.119 303.805C167.312 303.756 167.477 303.633 167.58 303.462C168.043 302.678 168.462 301.869 168.836 301.039C169.577 301.331 170.313 301.637 171.033 301.971C171.213 302.055 171.419 302.063 171.606 301.995C171.793 301.926 171.945 301.786 172.029 301.606C172.112 301.425 172.121 301.219 172.052 301.032C171.984 300.846 171.844 300.694 171.664 300.61ZM175.124 284.79L177.271 283.86C177.364 283.823 177.448 283.767 177.519 283.696C177.59 283.626 177.647 283.541 177.685 283.449C177.723 283.356 177.742 283.256 177.741 283.156C177.74 283.056 177.719 282.957 177.679 282.865C177.639 282.773 177.581 282.69 177.508 282.621C177.435 282.552 177.35 282.498 177.256 282.462C177.162 282.427 177.062 282.411 176.962 282.415C176.862 282.418 176.763 282.442 176.673 282.485L174.528 283.414C174.345 283.493 174.201 283.641 174.128 283.826C174.055 284.011 174.058 284.218 174.137 284.4C174.216 284.583 174.364 284.727 174.549 284.8C174.734 284.873 174.941 284.869 175.124 284.79ZM184.181 291.063L175.91 293.916C175.816 293.947 175.729 293.997 175.654 294.062C175.58 294.128 175.519 294.207 175.475 294.296C175.432 294.385 175.406 294.481 175.4 294.58C175.393 294.679 175.407 294.778 175.439 294.871C175.471 294.965 175.522 295.051 175.588 295.125C175.654 295.199 175.733 295.26 175.823 295.303C175.912 295.346 176.009 295.37 176.107 295.376C176.206 295.381 176.305 295.367 176.399 295.334L184.67 292.481C184.858 292.416 185.012 292.279 185.099 292.101C185.187 291.922 185.199 291.716 185.135 291.528C185.103 291.434 185.053 291.348 184.988 291.274C184.923 291.2 184.843 291.139 184.755 291.096C184.666 291.053 184.569 291.028 184.471 291.022C184.372 291.016 184.274 291.03 184.181 291.063ZM181.76 296.617L179.53 297.547C179.437 297.584 179.353 297.639 179.282 297.709C179.212 297.778 179.155 297.861 179.117 297.953C179.079 298.045 179.059 298.143 179.059 298.243C179.059 298.342 179.078 298.44 179.117 298.532C179.155 298.624 179.211 298.707 179.282 298.777C179.353 298.847 179.436 298.902 179.529 298.939C179.621 298.976 179.719 298.994 179.819 298.993C179.918 298.992 180.016 298.971 180.108 298.931L182.337 298.001C182.43 297.965 182.515 297.91 182.587 297.841C182.659 297.771 182.717 297.688 182.756 297.596C182.796 297.504 182.816 297.405 182.817 297.305C182.817 297.204 182.797 297.105 182.759 297.013C182.72 296.92 182.664 296.836 182.592 296.766C182.521 296.696 182.436 296.641 182.343 296.604C182.25 296.567 182.15 296.549 182.05 296.551C181.95 296.554 181.851 296.576 181.76 296.617Z" fill="black"/>
<path d="M205.407 265.015L183.768 274.877C182.67 272.357 181.581 269.834 180.501 267.306C180.501 267.258 180.511 267.211 180.501 267.162C180.462 266.967 180.347 266.796 180.181 266.686C180.016 266.576 179.813 266.535 179.618 266.574C176.871 267.125 174.418 267.652 172.124 268.18C171.886 267.631 171.639 267.086 171.384 266.545C171.313 266.398 171.196 266.277 171.051 266.202C170.906 266.126 170.741 266.099 170.579 266.125L166.835 266.765C166.499 265.295 165.951 263.875 164.692 262.929C161.48 260.529 157.355 261.972 157.394 266.209C157.401 266.922 157.827 267.946 158.308 269.024C157.784 269.229 155.856 269.986 155.31 270.134C153.498 270.616 153.817 271.164 154.447 272.538L154.622 272.996C152.466 273.683 150.141 274.456 147.521 275.36C147.409 275.399 147.308 275.463 147.226 275.549C147.144 275.634 147.083 275.738 147.048 275.851C147.014 275.964 147.007 276.084 147.028 276.201C147.048 276.318 147.097 276.428 147.168 276.522C147.039 277.469 146.878 278.448 146.782 279.362C152.667 292.242 158.092 305.35 163.978 318.23C174.484 314.216 185.143 310.4 195.65 306.386C195.69 306.286 196.504 304.29 196.347 303.896C195.827 302.588 187.514 283.502 187.168 282.707L209.147 272.69C211.104 271.798 211.761 268.963 210.742 267.068C209.692 265.116 207.248 264.176 205.407 265.015ZM181.575 282.22C181.305 281.734 181.018 281.259 180.713 280.794C181.05 279.867 181.42 278.932 181.828 277.99C182.068 278.083 183.292 278.142 183.395 279.385C183.407 279.526 183.458 279.661 183.543 279.775C183.628 279.888 183.744 279.975 183.876 280.025C184.496 280.26 184.887 281.075 184.535 282.062L181.575 282.22ZM203.303 267.624C203.307 267.634 203.957 268.663 204.258 269.213C198.128 272.483 190.843 275.503 184.626 278.28C184.335 277.623 183.811 277.098 183.154 276.806L203.303 267.624ZM186.143 281.527C186.191 280.707 186.097 280.202 185.544 279.513C191.898 276.686 198.912 273.762 204.92 270.559C205.254 271.322 205.51 272.058 205.626 272.647L186.143 281.527ZM159.68 270.016C160.229 269.647 160.008 269.152 159.702 268.466C159.462 267.928 158.898 266.669 158.894 266.195C158.867 263.203 161.617 262.495 163.791 264.128C164.899 264.962 165.261 266.444 165.511 267.766C165.549 267.959 165.661 268.129 165.822 268.241C165.984 268.353 166.182 268.398 166.376 268.366L170.268 267.701C170.854 268.978 171.236 269.938 171.812 271.211C166.662 272.55 161.876 273.761 157.137 275.294C156.546 273.924 155.994 272.264 155.646 271.596C156.234 271.437 159.142 270.376 159.68 270.016ZM194.652 303.746C185.208 306.914 174.932 310.766 165.522 314.662C160.622 302.14 153.914 285.784 148.872 276.483C150.96 275.765 153.056 275.071 155.159 274.399C155.442 275.129 155.741 275.875 155.939 276.287C156.182 276.787 156.702 277.015 157.196 276.852C162.169 275.222 167.1 273.985 173.059 272.436C173.166 272.408 173.265 272.357 173.35 272.286C173.434 272.216 173.502 272.127 173.549 272.028C173.595 271.928 173.619 271.819 173.619 271.709C173.619 271.598 173.594 271.49 173.547 271.39C173.266 270.791 172.994 270.188 172.732 269.58C174.742 269.12 176.889 268.659 179.244 268.181C180.258 270.551 181.314 273.001 182.403 275.499L181.251 276.024C181.089 276.098 180.958 276.228 180.882 276.39C180.686 276.81 180.507 277.231 180.328 277.651C180.014 277.686 181.16 277.355 170.226 281.085C170.13 281.115 170.041 281.163 169.965 281.228C169.888 281.293 169.825 281.372 169.779 281.462C169.734 281.551 169.707 281.649 169.7 281.749C169.693 281.85 169.706 281.95 169.739 282.045C169.771 282.14 169.823 282.228 169.89 282.302C169.957 282.377 170.038 282.438 170.129 282.48C170.22 282.523 170.318 282.547 170.419 282.551C170.519 282.555 170.619 282.539 170.713 282.503L179.602 279.452C179.177 280.581 178.776 281.72 178.399 282.866C178.232 283.371 178.637 283.886 179.151 283.85C185.516 283.493 185.299 283.604 185.803 283.33C189.038 290.76 192.008 297.571 194.652 303.746Z" fill="black"/>
</svg>
