<svg width="122" height="122" viewBox="0 0 122 122" fill="none" xmlns="http://www.w3.org/2000/svg">
<path d="M122 61C122 94.6894 94.6894 122 61 122C27.3106 122 0 94.6894 0 61C0 27.3106 27.3106 0 61 0C94.6894 0 122 27.3106 122 61Z" fill="url(#paint0_linear_8010_39622)"/>
<g clip-path="url(#clip0_8010_39622)">
<path d="M93.1098 69.0092H27.9204C29.3915 69.0092 30.7242 68.4346 31.6886 67.5066C32.653 66.578 33.2496 65.2955 33.2496 63.8786C33.2496 61.045 30.8636 58.748 27.9204 58.748H93.1103C91.6387 58.748 90.3065 59.3222 89.3416 60.2507C88.3772 61.1793 87.7811 62.4618 87.7811 63.8786C87.7811 66.7118 90.1666 69.0092 93.1103 69.0092H93.1098Z" fill="white"/>
<path d="M93.4977 69.0078H27.5023C23.3589 69.0078 20 72.3636 20 76.5033C20 80.6429 23.3589 83.9987 27.5023 83.9987H93.4977C97.6411 83.9987 101 80.6429 101 76.5033C101 72.3636 97.6411 69.0078 93.4977 69.0078Z" fill="white"/>
<path d="M89.7797 36.7949H45.0946C43.2552 36.7949 41.7642 38.2846 41.7642 40.1223C41.7642 41.96 43.2552 43.4497 45.0946 43.4497H89.7797C91.6191 43.4497 93.1101 41.96 93.1101 40.1223C93.1101 38.2846 91.6191 36.7949 89.7797 36.7949Z" fill="white"/>
<path d="M94.8977 47.6113H27.7166C24.6387 47.6113 22.1436 50.1041 22.1436 53.179C22.1436 56.2539 24.6387 58.7467 27.7166 58.7467H94.8977C97.9756 58.7467 100.471 56.2539 100.471 53.179C100.471 50.1041 97.9756 47.6113 94.8977 47.6113Z" fill="white"/>
<path d="M60.4995 58.3767C58.838 58.3767 57.2585 57.8525 55.9318 56.8616C54.6496 55.9035 53.6827 54.5382 53.209 53.018C52.8752 51.9471 51.9123 51.2278 50.812 51.2278H34.6381C34.1044 51.2278 33.5798 51.3146 33.0791 51.4864C32.8882 51.5518 32.6763 51.4903 32.5504 51.3321C32.4245 51.1743 32.4115 50.9542 32.5184 50.7829L35.2302 46.4192C35.3697 46.195 35.664 46.1261 35.8883 46.2654C36.1127 46.4047 36.1816 46.6987 36.0422 46.9229L33.934 50.3157C34.1669 50.2872 34.4023 50.2727 34.6386 50.2727H50.8125C52.3336 50.2727 53.6633 51.2617 54.122 52.7339C54.9949 55.5376 57.5573 57.4217 60.4995 57.4217C63.4417 57.4217 66.0046 55.5381 66.8775 52.7344C67.3362 51.2622 68.6664 50.2727 70.187 50.2727H86.3609C86.5972 50.2727 86.8321 50.2872 87.0644 50.3152L81.4264 41.2431C80.9667 40.5033 80.1717 40.062 79.3008 40.062H59.4352C59.1713 40.062 58.9575 39.8483 58.9575 39.5847C58.9575 39.3211 59.1713 39.1074 59.4352 39.1074H79.3008C80.505 39.1074 81.6033 39.718 82.2384 40.7399L88.4795 50.7824C88.586 50.9542 88.5735 51.1738 88.4471 51.3316C88.3212 51.4893 88.1093 51.5513 87.9184 51.4859C87.4187 51.3146 86.8945 51.2278 86.3604 51.2278H70.1865C69.0866 51.2278 68.1232 51.9471 67.7894 53.018C67.3162 54.5382 66.3493 55.903 65.0666 56.8616C63.74 57.853 62.1605 58.3767 60.499 58.3767H60.4995Z" fill="#808080"/>
<path d="M38.532 42.4892C38.4461 42.4892 38.3591 42.4662 38.2802 42.4173C38.0558 42.278 37.9869 41.984 38.1263 41.7598L38.7604 40.7399C39.396 39.7175 40.4943 39.1074 41.6986 39.1074H52.164C52.4279 39.1074 52.6417 39.3211 52.6417 39.5847C52.6417 39.8483 52.4279 40.062 52.164 40.062H41.6986C40.8271 40.062 40.0326 40.5038 39.5724 41.2431L38.9383 42.2631C38.8478 42.4088 38.6914 42.4887 38.532 42.4887V42.4892Z" fill="#808080"/>
<path d="M86.361 79.2877H34.6388C31.4638 79.2877 28.8804 76.7067 28.8804 73.5346V56.0266C28.8804 53.5679 30.4434 51.3807 32.7694 50.5835C33.3701 50.3778 33.9992 50.2734 34.6388 50.2734H50.8127C52.3337 50.2734 53.6634 51.2624 54.1221 52.7346C54.9951 55.5383 57.5575 57.4224 60.4997 57.4224C63.4418 57.4224 66.0047 55.5388 66.8777 52.7351C67.3364 51.2629 68.6666 50.2734 70.1871 50.2734H86.361C87.0011 50.2734 87.6292 50.3778 88.2294 50.583C90.5564 51.3802 92.1199 53.5679 92.1199 56.0266V73.5346C92.1199 76.7067 89.5366 79.2877 86.3615 79.2877H86.361ZM34.6388 51.2285C34.1051 51.2285 33.5804 51.3153 33.0798 51.4871C31.14 52.1515 29.8363 53.9762 29.8363 56.0266V73.5346C29.8363 76.1805 31.9909 78.3327 34.6388 78.3327H86.3615C89.0099 78.3327 91.164 76.18 91.164 73.5346V56.0266C91.164 53.9757 89.8604 52.151 87.9196 51.4866C87.4199 51.3153 86.8957 51.2285 86.3615 51.2285H70.1876C69.0878 51.2285 68.1244 51.9479 67.7906 53.0187C67.3174 54.5389 66.3505 55.9038 65.0678 56.8623C63.7411 57.8538 62.1616 58.3775 60.5002 58.3775C58.8387 58.3775 57.2592 57.8533 55.9325 56.8623C54.6503 55.9043 53.6834 54.5389 53.2097 53.0187C52.8759 51.9479 51.913 51.2285 50.8127 51.2285H34.6388Z" fill="#808080"/>
<path d="M74.3557 31.925C74.1369 31.925 73.9395 31.7738 73.8895 31.5516C73.832 31.294 73.9939 31.0389 74.2518 30.9815C75.569 30.6874 76.9316 30.3634 78.3028 30.0185C78.5586 29.9541 78.8184 30.1093 78.8829 30.3649C78.9474 30.6205 78.792 30.8801 78.5361 30.9445C77.157 31.2915 75.7858 31.6175 74.4602 31.913C74.4252 31.921 74.3902 31.9245 74.3552 31.9245L74.3557 31.925Z" fill="#808080"/>
<path d="M40.4124 45.1748C33.9384 45.1748 28.0895 43.9168 28.0296 43.9038C27.7717 43.8474 27.6083 43.5933 27.6643 43.3357C27.7203 43.0781 27.9751 42.9143 28.2329 42.9707C28.2934 42.9837 34.3561 44.2867 40.919 44.2173C44.7477 44.1769 47.9926 43.6851 50.5635 42.7551C53.7116 41.6163 55.8422 39.8131 56.8971 37.3948C57.3793 36.2895 57.7351 35.2606 57.9644 34.3131C57.1774 34.3435 56.4249 34.3545 55.7103 34.3455C51.9597 34.2991 49.3153 33.7125 48.0636 32.6491C46.9133 31.6716 46.9273 30.3077 48.1021 28.9074C49.0275 27.8041 50.5285 26.9814 52.2205 26.6494C53.9699 26.3064 55.6903 26.5525 56.9401 27.3253C58.1943 28.1011 58.9663 29.3737 59.1722 31.0052C59.2606 31.7061 59.2466 32.4719 59.1307 33.2986C62.4476 33.097 66.3202 32.5753 70.5331 31.7575C70.7924 31.7071 71.0433 31.8763 71.0932 32.1354C71.1437 32.3945 70.9743 32.6451 70.7155 32.6951C66.3657 33.5393 62.3677 34.071 58.9553 34.2652C58.7164 35.3455 58.3222 36.5182 57.7735 37.7757C56.6093 40.4456 54.2907 42.4236 50.8823 43.6547C48.2075 44.6212 44.8536 45.1314 40.914 45.1719C40.7466 45.1733 40.5793 45.1743 40.4124 45.1743V45.1748ZM53.7825 27.4472C51.8612 27.4472 49.8535 28.3063 48.8346 29.521C47.7243 30.8444 48.2165 31.5249 48.6832 31.9218C49.7475 32.8264 52.2475 33.3481 55.7223 33.391C56.4903 33.4005 57.3038 33.3865 58.1583 33.3496C58.2862 32.5373 58.3082 31.795 58.2238 31.125C58.0529 29.7701 57.4512 28.7651 56.4369 28.1376C55.6598 27.6573 54.7319 27.4472 53.7825 27.4472Z" fill="#808080"/>
<path d="M84.6774 27.3192C84.0637 27.8264 82.6901 27.3362 81.6083 26.2244C80.527 25.1121 80.1472 23.7991 80.7608 23.2919C81.3744 22.7847 82.7481 23.2749 83.8299 24.3867C84.9112 25.499 85.291 26.812 84.6774 27.3192Z" fill="#808080"/>
<path d="M85.2538 29.0451C86.6148 28.4799 87.491 27.4756 87.2107 26.8019C86.9305 26.1282 85.5999 26.0403 84.2388 26.6055C82.8778 27.1707 82.0016 28.175 82.2819 28.8487C82.5621 29.5224 83.8927 29.6103 85.2538 29.0451Z" fill="#808080"/>
<path d="M84.7918 27.482C83.9943 27.6128 83.1858 26.494 82.9859 24.9828C82.7861 23.4716 83.2703 22.1412 84.0678 22.0104C84.8653 21.8796 85.6738 22.9984 85.8737 24.5095C86.0735 26.0202 85.5893 27.3512 84.7918 27.482Z" fill="#808080"/>
<path d="M87.2468 26.4423C87.2094 26.6834 86.9305 26.8597 86.6237 26.8362C86.3169 26.8127 86.0985 26.5981 86.136 26.3569C86.1735 26.1158 86.4523 25.9396 86.7591 25.963C87.0659 25.9865 87.2843 26.2012 87.2468 26.4423Z" fill="#808080"/>
<path d="M84.4089 29.9164C84.3884 29.9149 84.3699 29.9039 84.3609 29.8855C84.3469 29.8575 84.3609 29.8231 84.3924 29.8086C85.1399 29.4646 85.9484 27.6364 86.0014 27.4772C86.0114 27.4467 86.0468 27.4277 86.0793 27.4352C86.1123 27.4427 86.1308 27.4737 86.1203 27.5046C86.1138 27.5241 85.3023 29.5145 84.4428 29.9099C84.4318 29.9149 84.4199 29.9169 84.4089 29.9159V29.9164Z" fill="#808080"/>
<path d="M83.218 29.7458C83.2 29.7354 83.1885 29.7174 83.188 29.6969C83.188 29.6655 83.2155 29.641 83.2504 29.6415C84.0729 29.6605 85.603 28.3725 85.7204 28.2527C85.7429 28.2297 85.7829 28.2282 85.8089 28.2492C85.8348 28.2706 85.8378 28.3061 85.8153 28.3295C85.8009 28.344 84.1974 29.7763 83.2509 29.7548C83.239 29.7548 83.2275 29.7513 83.2175 29.7454L83.218 29.7458Z" fill="#808080"/>
</g>
<defs>
<linearGradient id="paint0_linear_8010_39622" x1="61" y1="0" x2="61" y2="122" gradientUnits="userSpaceOnUse">
<stop offset="0.360577" stop-color="#E8E8E8"/>
<stop offset="1" stop-color="white" stop-opacity="0"/>
</linearGradient>
<clipPath id="clip0_8010_39622">
<rect width="81" height="62" fill="white" transform="translate(20 22)"/>
</clipPath>
</defs>
</svg>
