<svg width="81" height="125" viewBox="0 0 81 125" fill="none" xmlns="http://www.w3.org/2000/svg">
<g clip-path="url(#clip0_2015_3253)">
<path d="M40.5532 68.2696C38.8917 68.2696 37.3122 67.7454 35.9855 66.7544C34.7034 65.7964 33.7365 64.431 33.2627 62.9108C32.929 61.84 31.9661 61.1206 30.8657 61.1206H14.6918C14.1582 61.1206 13.6335 61.2074 13.1328 61.3792C12.9419 61.4446 12.73 61.3832 12.6041 61.2249C12.4782 61.0672 12.4652 60.847 12.5721 60.6758L15.284 56.312C15.4234 56.0878 15.7177 56.0189 15.942 56.1582C16.1664 56.2975 16.2354 56.5915 16.0959 56.8157L13.9878 60.2085C14.2206 60.18 14.456 60.1655 14.6923 60.1655H30.8662C32.3873 60.1655 33.717 61.1545 34.1757 62.6268C35.0486 65.4304 37.611 67.3145 40.5532 67.3145C43.4954 67.3145 46.0583 65.4309 46.9312 62.6273C47.3899 61.155 48.7201 60.1655 50.2407 60.1655H66.4146C66.6509 60.1655 66.8858 60.18 67.1181 60.208L61.4802 51.136C61.0204 50.3961 60.2254 49.9548 59.3545 49.9548H39.4889C39.225 49.9548 39.0112 49.7411 39.0112 49.4775C39.0112 49.2139 39.225 49.0002 39.4889 49.0002H59.3545C60.5587 49.0002 61.657 49.6108 62.2921 50.6327L68.5333 60.6753C68.6397 60.847 68.6272 61.0667 68.5008 61.2244C68.3749 61.3822 68.163 61.4441 67.9721 61.3787C67.4724 61.2074 66.9482 61.1206 66.4141 61.1206H50.2402C49.1403 61.1206 48.1769 61.84 47.8432 62.9108C47.3699 64.431 46.4031 65.7959 45.1204 66.7544C43.7937 67.7459 42.2142 68.2696 40.5527 68.2696H40.5532Z" fill="#AFB9BA"/>
<path d="M18.5325 51.989C18.4466 51.989 18.3596 51.966 18.2807 51.9171C18.0563 51.7778 17.9874 51.4837 18.1268 51.2596L18.7609 50.2397C19.3965 49.2172 20.4948 48.6072 21.699 48.6072H32.1645C32.4284 48.6072 32.6422 48.8208 32.6422 49.0844C32.6422 49.348 32.4284 49.5617 32.1645 49.5617H21.699C20.8276 49.5617 20.0331 50.0035 19.5729 50.7429L18.9388 51.7628C18.8483 51.9086 18.6919 51.9885 18.5325 51.9885V51.989Z" fill="#AFB9BA"/>
<path d="M66.3615 88.7868H14.6393C11.4642 88.7868 8.88086 86.2057 8.88086 83.0336V65.5256C8.88086 63.0669 10.4439 60.8798 12.7699 60.0825C13.3706 59.8768 13.9997 59.7725 14.6393 59.7725H30.8132C32.3342 59.7725 33.6639 60.7614 34.1226 62.2337C34.9956 65.0374 37.558 66.9214 40.5001 66.9214C43.4423 66.9214 46.0052 65.0378 46.8782 62.2342C47.3369 60.7619 48.6671 59.7725 50.1876 59.7725H66.3615C67.0016 59.7725 67.6297 59.8768 68.2299 60.082C70.5569 60.8793 72.1204 63.0669 72.1204 65.5256V83.0336C72.1204 86.2057 69.537 88.7868 66.362 88.7868H66.3615ZM14.6393 60.7275C14.1056 60.7275 13.5809 60.8144 13.0802 60.9861C11.1405 61.6506 9.83676 63.4753 9.83676 65.5256V83.0336C9.83676 85.6796 11.9914 87.8317 14.6393 87.8317H66.362C69.0104 87.8317 71.1645 85.6791 71.1645 83.0336V65.5256C71.1645 63.4748 69.8608 61.6501 67.9201 60.9856C67.4204 60.8144 66.8962 60.7275 66.362 60.7275H50.1881C49.0883 60.7275 48.1249 61.4469 47.7911 62.5177C47.3179 64.0379 46.351 65.4028 45.0683 66.3613C43.7416 67.3528 42.1621 67.8765 40.5006 67.8765C38.8392 67.8765 37.2597 67.3523 35.933 66.3613C34.6508 65.4033 33.6839 64.0379 33.2102 62.5177C32.8764 61.4469 31.9135 60.7275 30.8132 60.7275H14.6393Z" fill="#AFB9BA"/>
<path d="M54.3557 41.4243C54.1369 41.4243 53.9395 41.273 53.8895 41.0509C53.832 40.7933 53.9939 40.5382 54.2518 40.4808C55.569 40.1867 56.9316 39.8627 58.3028 39.5177C58.5586 39.4533 58.8184 39.6086 58.8829 39.8642C58.9474 40.1198 58.792 40.3794 58.5361 40.4438C57.157 40.7908 55.7858 41.1168 54.4602 41.4123C54.4252 41.4203 54.3902 41.4238 54.3552 41.4238L54.3557 41.4243Z" fill="#AFB9BA"/>
<path d="M20.4124 54.6748C13.9384 54.6748 8.08954 53.4168 8.02958 53.4038C7.77174 53.3474 7.60834 53.0933 7.6643 52.8357C7.72027 52.5781 7.97511 52.4143 8.23295 52.4707C8.29341 52.4837 14.3561 53.7867 20.919 53.7173C24.7477 53.6769 27.9926 53.1851 30.5635 52.2551C33.7116 51.1163 35.8422 49.3131 36.8971 46.8948C37.3793 45.7895 37.7351 44.7606 37.9644 43.8131C37.1774 43.8435 36.4249 43.8545 35.7103 43.8455C31.9597 43.7991 29.3153 43.2125 28.0636 42.1491C26.9133 41.1716 26.9273 39.8077 28.1021 38.4074C29.0275 37.3041 30.5285 36.4814 32.2205 36.1494C33.9699 35.8064 35.6903 36.0525 36.9401 36.8253C38.1943 37.6011 38.9663 38.8737 39.1722 40.5052C39.2606 41.2061 39.2466 41.9719 39.1307 42.7986C42.4476 42.597 46.3202 42.0753 50.5331 41.2575C50.7924 41.2071 51.0433 41.3763 51.0932 41.6354C51.1437 41.8945 50.9743 42.1451 50.7155 42.1951C46.3657 43.0393 42.3677 43.571 38.9553 43.7652C38.7164 44.8455 38.3222 46.0182 37.7735 47.2757C36.6093 49.9456 34.2907 51.9236 30.8823 53.1547C28.2075 54.1212 24.8536 54.6314 20.914 54.6719C20.7466 54.6733 20.5793 54.6743 20.4124 54.6743V54.6748ZM33.7825 36.9472C31.8612 36.9472 29.8535 37.8063 28.8346 39.021C27.7243 40.3444 28.2165 41.0249 28.6832 41.4218C29.7475 42.3264 32.2475 42.8481 35.7223 42.891C36.4903 42.9005 37.3038 42.8865 38.1583 42.8496C38.2862 42.0373 38.3082 41.295 38.2238 40.625C38.0529 39.2701 37.4512 38.2651 36.4369 37.6376C35.6598 37.1573 34.7319 36.9472 33.7825 36.9472Z" fill="#AFB9BA"/>
<path d="M64.6769 36.8193C64.0633 37.3265 62.6896 36.8363 61.6078 35.7245C60.5265 34.6122 60.1467 33.2993 60.7603 32.792C61.3739 32.2848 62.7476 32.7751 63.8294 33.8868C64.9107 34.9991 65.2905 36.3121 64.6769 36.8193Z" fill="#AFB9BA"/>
<path d="M65.2528 38.5456C66.6139 37.9804 67.49 36.9761 67.2098 36.3024C66.9295 35.6287 65.5989 35.5408 64.2379 36.106C62.8768 36.6712 62.0006 37.6755 62.2809 38.3492C62.5612 39.0229 63.8917 39.1108 65.2528 38.5456Z" fill="#AFB9BA"/>
<path d="M64.7913 36.9816C63.9938 37.1124 63.1853 35.9936 62.9855 34.4825C62.7856 32.9713 63.2698 31.6408 64.0673 31.51C64.8648 31.3792 65.6733 32.498 65.8732 34.0092C66.073 35.5199 65.5888 36.8508 64.7913 36.9816Z" fill="#AFB9BA"/>
<path d="M67.2459 35.9412C67.2084 36.1823 66.9296 36.3586 66.6227 36.3351C66.3159 36.3116 66.0976 36.097 66.135 35.8558C66.1725 35.6147 66.4513 35.4385 66.7582 35.4619C67.065 35.4854 67.2833 35.7001 67.2459 35.9412Z" fill="#AFB9BA"/>
<path d="M64.4089 39.4153C64.3884 39.4138 64.3699 39.4028 64.3609 39.3844C64.3469 39.3564 64.3609 39.322 64.3924 39.3075C65.1399 38.9635 65.9484 37.1353 66.0014 36.9761C66.0114 36.9456 66.0468 36.9266 66.0793 36.9341C66.1123 36.9416 66.1308 36.9726 66.1203 37.0035C66.1138 37.023 65.3023 39.0134 64.4428 39.4088C64.4318 39.4138 64.4199 39.4158 64.4089 39.4148V39.4153Z" fill="#AFB9BA"/>
<path d="M63.2175 39.2456C63.1995 39.2351 63.188 39.2171 63.1875 39.1967C63.1875 39.1652 63.215 39.1408 63.25 39.1413C64.0724 39.1602 65.6025 37.8722 65.7199 37.7524C65.7424 37.7294 65.7824 37.7279 65.8084 37.7489C65.8343 37.7704 65.8373 37.8058 65.8149 37.8293C65.8004 37.8438 64.1969 39.2761 63.2505 39.2546C63.2385 39.2546 63.227 39.2511 63.217 39.2451L63.2175 39.2456Z" fill="#AFB9BA"/>
</g>
<defs>
<clipPath id="clip0_2015_3253">
<rect width="81" height="62" fill="white" transform="translate(0 31.5)"/>
</clipPath>
</defs>
</svg>
