<svg width="178" height="42" viewBox="0 0 178 42" fill="none" xmlns="http://www.w3.org/2000/svg">
<path d="M40.4893 9.54163L44.7199 19.5221L47.8144 29.7127" stroke="black" stroke-width="1.03333" stroke-linecap="round"/>
<path d="M18.459 9.81494L22.9892 20.401L26.1109 31.214" stroke="black" stroke-width="1.03333" stroke-linecap="round"/>
<path d="M18.836 9.93047C18.865 9.74358 18.72 9.57097 18.5123 9.54494C18.3045 9.5189 18.1126 9.64928 18.0837 9.83617L18.836 9.93047ZM16.8878 20.0364L16.5116 19.9892L16.5092 20.0047L16.5084 20.0202L16.8878 20.0364ZM18.0837 9.83617L16.5116 19.9892L17.2639 20.0835L18.836 9.93047L18.0837 9.83617ZM16.5084 20.0202L15.9834 30.0109L16.7422 30.0432L17.2672 20.0525L16.5084 20.0202Z" fill="black"/>
<path d="M16.4082 29.905L25.9798 31.2375L47.8578 29.7" stroke="black" stroke-width="1.03333" stroke-linecap="round"/>
<path d="M20.3526 21.4452C20.319 21.2973 20.1584 21.2019 19.994 21.2321C19.8297 21.2623 19.7236 21.4068 19.7572 21.5547L20.3526 21.4452ZM21.1184 26.1808L21.4176 26.1334L21.4169 26.1297L21.4161 26.126L21.1184 26.1808ZM19.7572 21.5547L20.8207 26.2355L21.4161 26.126L20.3526 21.4452L19.7572 21.5547ZM20.8192 26.2282L21.7262 30.8564L22.3247 30.7615L21.4176 26.1334L20.8192 26.2282Z" fill="black"/>
<path d="M18.497 23.8943L18.1552 26.42L18.1172 28.4043" stroke="black" stroke-width="0.826667" stroke-linecap="round"/>
<path d="M22.6377 15.4183H25.6003" stroke="black" stroke-width="0.826667" stroke-linecap="round"/>
<path d="M27.7275 15.4183H30.6902" stroke="black" stroke-width="0.826667" stroke-linecap="round"/>
<path d="M32.1328 15.4183H35.0955" stroke="black" stroke-width="0.826667" stroke-linecap="round"/>
<path d="M36.6152 15.4183H39.5779" stroke="black" stroke-width="0.826667" stroke-linecap="round"/>
<path d="M24.499 17.8101H27.4617" stroke="black" stroke-width="0.826667" stroke-linecap="round"/>
<path d="M24.7646 20.4066H27.7273" stroke="black" stroke-width="0.826667" stroke-linecap="round"/>
<path d="M29.1709 20.4066H32.1335" stroke="black" stroke-width="0.826667" stroke-linecap="round"/>
<path d="M25.3721 22.5934H28.3347" stroke="black" stroke-width="0.826667" stroke-linecap="round"/>
<path d="M29.1709 17.8101H32.1335" stroke="black" stroke-width="0.826667" stroke-linecap="round"/>
<path d="M33.6523 17.8101H36.615" stroke="black" stroke-width="0.826667" stroke-linecap="round"/>
<path d="M20.4736 9.74275V9.12775L20.6635 8.58108L20.9294 8.13691L21.3472 7.76106L22.0309 7.41939L22.8545 7.31689L23.2843 7.35106L23.6642 7.48773L24.082 7.65856L24.4238 7.96608L24.6898 8.20525L24.8416 8.51275L25.0315 9.05941L25.0696 9.40108L25.0315 9.74275C25.0064 9.94679 24.9506 10.1469 24.8659 10.3375L24.8416 10.3919L24.4998 10.8361L24.006 11.1436L23.5502 11.3486L22.8545 11.4602" stroke="black" stroke-width="0.826667" stroke-linecap="round"/>
<path d="M26.7031 9.40107V8.78607L26.893 8.23941L27.1589 7.79522L27.5767 7.41939L28.2604 7.07772L29.084 6.97522L29.5138 7.00939L29.8937 7.14605L30.3115 7.31689L30.6533 7.62439L30.9193 7.86357L31.0711 8.17107L31.261 8.71774L31.2991 9.05941L31.261 9.40107C31.2359 9.60512 31.1801 9.8052 31.0954 9.99585L31.0711 10.0502L30.7293 10.4944L30.2355 10.8019L29.7797 11.0069L29.084 11.1186" stroke="black" stroke-width="0.826667" stroke-linecap="round"/>
<path d="M32.6279 9.33271V8.71771L32.8178 8.17105L33.0837 7.72686L33.5015 7.35103L34.1852 7.00936L35.0088 6.90686L35.4386 6.94103L35.8185 7.07769L36.2363 7.24853L36.5781 7.55603L36.8441 7.79519L36.9959 8.10271L37.1858 8.64938L37.2239 8.99105L37.1858 9.33271C37.1607 9.53676 37.1049 9.73684 37.0202 9.92749L36.9959 9.98188L36.6541 10.426L36.1603 10.7335L35.7045 10.9385L35.0088 11.0502" stroke="black" stroke-width="0.826667" stroke-linecap="round"/>
<path d="M18.5352 9.81496L40.4891 9.54163" stroke="black" stroke-width="1.03333" stroke-linecap="round"/>
<path d="M60.4821 15.464V21.896C60.4821 22.344 60.5861 22.672 60.7941 22.88C61.0181 23.072 61.3861 23.168 61.8981 23.168H63.4581V26H61.3461C58.5141 26 57.0981 24.624 57.0981 21.872V15.464H55.5141V12.704H57.0981V9.416H60.4821V12.704H63.4581V15.464H60.4821ZM65.0107 19.304C65.0107 17.96 65.2747 16.768 65.8027 15.728C66.3468 14.688 67.0748 13.888 67.9868 13.328C68.9148 12.768 69.9468 12.488 71.0828 12.488C72.0748 12.488 72.9388 12.688 73.6748 13.088C74.4268 13.488 75.0268 13.992 75.4748 14.6V12.704H78.8588V26H75.4748V24.056C75.0428 24.68 74.4428 25.2 73.6748 25.616C72.9228 26.016 72.0508 26.216 71.0588 26.216C69.9388 26.216 68.9148 25.928 67.9868 25.352C67.0748 24.776 66.3468 23.968 65.8027 22.928C65.2747 21.872 65.0107 20.664 65.0107 19.304ZM75.4748 19.352C75.4748 18.536 75.3148 17.84 74.9948 17.264C74.6748 16.672 74.2428 16.224 73.6988 15.92C73.1548 15.6 72.5708 15.44 71.9468 15.44C71.3228 15.44 70.7468 15.592 70.2188 15.896C69.6908 16.2 69.2588 16.648 68.9228 17.24C68.6028 17.816 68.4428 18.504 68.4428 19.304C68.4428 20.104 68.6028 20.808 68.9228 21.416C69.2588 22.008 69.6908 22.464 70.2188 22.784C70.7628 23.104 71.3388 23.264 71.9468 23.264C72.5708 23.264 73.1548 23.112 73.6988 22.808C74.2428 22.488 74.6748 22.04 74.9948 21.464C75.3148 20.872 75.4748 20.168 75.4748 19.352ZM87.2284 26.216C86.1404 26.216 85.1644 26.024 84.3004 25.64C83.4364 25.24 82.7484 24.704 82.2364 24.032C81.7404 23.36 81.4684 22.616 81.4204 21.8H84.8044C84.8684 22.312 85.1164 22.736 85.5484 23.072C85.9964 23.408 86.5484 23.576 87.2044 23.576C87.8444 23.576 88.3404 23.448 88.6924 23.192C89.0604 22.936 89.2444 22.608 89.2444 22.208C89.2444 21.776 89.0204 21.456 88.5724 21.248C88.1404 21.024 87.4444 20.784 86.4844 20.528C85.4924 20.288 84.6764 20.04 84.0364 19.784C83.4124 19.528 82.8684 19.136 82.4044 18.608C81.9564 18.08 81.7324 17.368 81.7324 16.472C81.7324 15.736 81.9404 15.064 82.3564 14.456C82.7884 13.848 83.3964 13.368 84.1804 13.016C84.9804 12.664 85.9164 12.488 86.9884 12.488C88.5724 12.488 89.8364 12.888 90.7804 13.688C91.7244 14.472 92.2444 15.536 92.3404 16.88H89.1244C89.0764 16.352 88.8524 15.936 88.4524 15.632C88.0684 15.312 87.5484 15.152 86.8924 15.152C86.2844 15.152 85.8124 15.264 85.4764 15.488C85.1564 15.712 84.9964 16.024 84.9964 16.424C84.9964 16.872 85.2204 17.216 85.6684 17.456C86.1164 17.68 86.8124 17.912 87.7564 18.152C88.7164 18.392 89.5084 18.64 90.1324 18.896C90.7564 19.152 91.2924 19.552 91.7404 20.096C92.2044 20.624 92.4444 21.328 92.4604 22.208C92.4604 22.976 92.2444 23.664 91.8124 24.272C91.3964 24.88 90.7884 25.36 89.9884 25.712C89.2044 26.048 88.2844 26.216 87.2284 26.216ZM103.091 26L98.5785 20.336V26H95.2185V8.24H98.5785V18.344L103.043 12.704H107.411L101.555 19.376L107.459 26H103.091ZM115.33 15.464H113.002V26H109.594V15.464H108.082V12.704H109.594V12.032C109.594 10.4 110.058 9.2 110.986 8.432C111.914 7.664 113.314 7.304 115.186 7.352V10.184C114.37 10.168 113.802 10.304 113.482 10.592C113.162 10.88 113.002 11.4 113.002 12.152V12.704H115.33V15.464ZM120.868 8.24V26H117.508V8.24H120.868ZM130.091 26.216C128.811 26.216 127.659 25.936 126.635 25.376C125.611 24.8 124.803 23.992 124.211 22.952C123.635 21.912 123.347 20.712 123.347 19.352C123.347 17.992 123.643 16.792 124.235 15.752C124.843 14.712 125.667 13.912 126.707 13.352C127.747 12.776 128.907 12.488 130.187 12.488C131.467 12.488 132.627 12.776 133.667 13.352C134.707 13.912 135.523 14.712 136.115 15.752C136.723 16.792 137.027 17.992 137.027 19.352C137.027 20.712 136.715 21.912 136.091 22.952C135.483 23.992 134.651 24.8 133.595 25.376C132.555 25.936 131.387 26.216 130.091 26.216ZM130.091 23.288C130.699 23.288 131.267 23.144 131.795 22.856C132.339 22.552 132.771 22.104 133.091 21.512C133.411 20.92 133.571 20.2 133.571 19.352C133.571 18.088 133.235 17.12 132.563 16.448C131.907 15.76 131.099 15.416 130.139 15.416C129.179 15.416 128.371 15.76 127.715 16.448C127.075 17.12 126.755 18.088 126.755 19.352C126.755 20.616 127.067 21.592 127.691 22.28C128.331 22.952 129.131 23.288 130.091 23.288ZM157.924 12.704L154.036 26H150.412L147.988 16.712L145.564 26H141.916L138.004 12.704H141.412L143.764 22.832L146.308 12.704H149.86L152.356 22.808L154.708 12.704H157.924Z" fill="black"/>
</svg>
