<svg width="219" height="62" viewBox="0 0 219 62" fill="none" xmlns="http://www.w3.org/2000/svg">
<path d="M60.5605 12.9166L66.8884 28.0091L71.517 43.4193" stroke="black" stroke-width="1.03333" stroke-linecap="round"/>
<path d="M27.6104 13.33L34.3862 29.3381L39.0555 45.6895" stroke="black" stroke-width="1.03333" stroke-linecap="round"/>
<path d="M28.173 13.5046C28.2163 13.222 27.9995 12.961 27.6888 12.9216C27.378 12.8823 27.091 13.0794 27.0477 13.362L28.173 13.5046ZM25.2589 28.7867L24.6963 28.7154L24.6926 28.7388L24.6915 28.7623L25.2589 28.7867ZM27.0477 13.362L24.6963 28.7154L25.8216 28.858L28.173 13.5046L27.0477 13.362ZM24.6915 28.7623L23.9062 43.8702L25.0412 43.9189L25.8265 28.8111L24.6915 28.7623Z" fill="black"/>
<path d="M24.542 43.71L38.8585 45.725L71.5818 43.4" stroke="black" stroke-width="1.03333" stroke-linecap="round"/>
<path d="M30.4418 30.9172C30.3916 30.6936 30.1514 30.5493 29.9056 30.595C29.6597 30.6407 29.5011 30.8591 29.5513 31.0827L30.4418 30.9172ZM31.5873 38.0783L32.0348 38.0066L32.0338 38.001L32.0326 37.9955L31.5873 38.0783ZM29.5513 31.0827L31.142 38.1611L32.0326 37.9955L30.4418 30.9172L29.5513 31.0827ZM31.1397 38.15L32.4964 45.1488L33.3915 45.0052L32.0348 38.0066L31.1397 38.15Z" fill="black"/>
<path d="M27.6667 34.6206L27.1556 38.44L27.0986 41.4406" stroke="black" stroke-width="0.826667" stroke-linecap="round"/>
<path d="M33.8594 21.8033H38.2907" stroke="black" stroke-width="0.826667" stroke-linecap="round"/>
<path d="M41.4727 21.8033H45.9039" stroke="black" stroke-width="0.826667" stroke-linecap="round"/>
<path d="M48.0625 21.8033H52.4938" stroke="black" stroke-width="0.826667" stroke-linecap="round"/>
<path d="M54.7656 21.8033H59.1969" stroke="black" stroke-width="0.826667" stroke-linecap="round"/>
<path d="M36.6436 25.42H41.0748" stroke="black" stroke-width="0.826667" stroke-linecap="round"/>
<path d="M37.041 29.3467H41.4723" stroke="black" stroke-width="0.826667" stroke-linecap="round"/>
<path d="M43.6309 29.3467H48.0621" stroke="black" stroke-width="0.826667" stroke-linecap="round"/>
<path d="M37.9502 32.6533H42.3815" stroke="black" stroke-width="0.826667" stroke-linecap="round"/>
<path d="M43.6309 25.42H48.0621" stroke="black" stroke-width="0.826667" stroke-linecap="round"/>
<path d="M50.335 25.42H54.7662" stroke="black" stroke-width="0.826667" stroke-linecap="round"/>
<path d="M30.623 13.2207V12.2907L30.9071 11.4641L31.3048 10.7924L31.9297 10.224L32.9523 9.70737L34.1842 9.55237L34.8271 9.60403L35.3952 9.8107L36.0201 10.069L36.5314 10.5341L36.9292 10.8957L37.1564 11.3607L37.4404 12.1874L37.4973 12.7041L37.4404 13.2207C37.4028 13.5293 37.3194 13.8318 37.1926 14.1201L37.1564 14.2024L36.6451 14.8741L35.9065 15.3391L35.2248 15.6491L34.1842 15.8179" stroke="black" stroke-width="0.826667" stroke-linecap="round"/>
<path d="M39.9404 12.704V11.774L40.2245 10.9473L40.6222 10.2756L41.2471 9.70731L42.2697 9.19064L43.5016 9.03564L44.1445 9.08731L44.7126 9.29398L45.3375 9.55231L45.8488 10.0173L46.2466 10.379L46.4737 10.844L46.7578 11.6707L46.8147 12.1873L46.7578 12.704C46.7202 13.0126 46.6368 13.3151 46.51 13.6034L46.4737 13.6857L45.9624 14.3573L45.2239 14.8223L44.5422 15.1323L43.5016 15.3012" stroke="black" stroke-width="0.826667" stroke-linecap="round"/>
<path d="M48.8027 12.6006V11.6706L49.0868 10.8439L49.4845 10.1723L50.1094 9.60392L51.132 9.08725L52.3639 8.93225L53.0068 8.98392L53.5749 9.19058L54.1998 9.44892L54.7111 9.91392L55.1089 10.2756L55.336 10.7406L55.6201 11.5673L55.677 12.0839L55.6201 12.6006C55.5825 12.9092 55.4991 13.2117 55.3723 13.5L55.336 13.5823L54.8247 14.2539L54.0862 14.7189L53.4045 15.0289L52.3639 15.1978" stroke="black" stroke-width="0.826667" stroke-linecap="round"/>
<path d="M27.7236 13.33L60.5606 12.9166" stroke="black" stroke-width="1.03333" stroke-linecap="round"/>
<path d="M86.1428 25.952V34.528C86.1428 35.1253 86.2814 35.5627 86.5588 35.84C86.8574 36.096 87.3481 36.224 88.0308 36.224H90.1108V40H87.2948C83.5188 40 81.6308 38.1653 81.6308 34.496V25.952H79.5188V22.272H81.6308V17.888H86.1428V22.272H90.1108V25.952H86.1428ZM92.181 31.072C92.181 29.28 92.533 27.6907 93.237 26.304C93.9623 24.9173 94.933 23.8507 96.149 23.104C97.3863 22.3573 98.7623 21.984 100.277 21.984C101.6 21.984 102.752 22.2507 103.733 22.784C104.736 23.3173 105.536 23.9893 106.133 24.8V22.272H110.645V40H106.133V37.408C105.557 38.24 104.757 38.9333 103.733 39.488C102.73 40.0213 101.568 40.288 100.245 40.288C98.7517 40.288 97.3863 39.904 96.149 39.136C94.933 38.368 93.9623 37.2907 93.237 35.904C92.533 34.496 92.181 32.8853 92.181 31.072ZM106.133 31.136C106.133 30.048 105.92 29.12 105.493 28.352C105.066 27.5627 104.49 26.9653 103.765 26.56C103.04 26.1333 102.261 25.92 101.429 25.92C100.597 25.92 99.829 26.1227 99.125 26.528C98.421 26.9333 97.845 27.5307 97.397 28.32C96.9703 29.088 96.757 30.0053 96.757 31.072C96.757 32.1387 96.9703 33.0773 97.397 33.888C97.845 34.6773 98.421 35.2853 99.125 35.712C99.8503 36.1387 100.618 36.352 101.429 36.352C102.261 36.352 103.04 36.1493 103.765 35.744C104.49 35.3173 105.066 34.72 105.493 33.952C105.92 33.1627 106.133 32.224 106.133 31.136ZM121.805 40.288C120.354 40.288 119.053 40.032 117.901 39.52C116.749 38.9867 115.831 38.272 115.149 37.376C114.487 36.48 114.125 35.488 114.061 34.4H118.573C118.658 35.0827 118.989 35.648 119.565 36.096C120.162 36.544 120.898 36.768 121.773 36.768C122.626 36.768 123.287 36.5973 123.757 36.256C124.247 35.9147 124.493 35.4773 124.493 34.944C124.493 34.368 124.194 33.9413 123.597 33.664C123.021 33.3653 122.093 33.0453 120.812 32.704C119.49 32.384 118.402 32.0533 117.549 31.712C116.717 31.3707 115.991 30.848 115.373 30.144C114.775 29.44 114.477 28.4907 114.477 27.296C114.477 26.3147 114.754 25.4187 115.309 24.608C115.885 23.7973 116.695 23.1573 117.741 22.688C118.807 22.2187 120.055 21.984 121.485 21.984C123.597 21.984 125.282 22.5173 126.541 23.584C127.799 24.6293 128.493 26.048 128.621 27.84H124.333C124.269 27.136 123.97 26.5813 123.437 26.176C122.925 25.7493 122.231 25.536 121.357 25.536C120.546 25.536 119.917 25.6853 119.469 25.984C119.042 26.2827 118.829 26.6987 118.829 27.232C118.829 27.8293 119.127 28.288 119.725 28.608C120.322 28.9067 121.25 29.216 122.509 29.536C123.789 29.856 124.845 30.1867 125.677 30.528C126.509 30.8693 127.223 31.4027 127.821 32.128C128.439 32.832 128.759 33.7707 128.781 34.944C128.781 35.968 128.493 36.8853 127.917 37.696C127.362 38.5067 126.551 39.1467 125.485 39.616C124.439 40.064 123.213 40.288 121.805 40.288ZM142.954 40L136.938 32.448V40H132.458V16.32H136.938V29.792L142.89 22.272H148.714L140.906 31.168L148.778 40H142.954ZM159.274 25.952H156.17V40H151.626V25.952H149.61V22.272H151.626V21.376C151.626 19.2 152.244 17.6 153.482 16.576C154.719 15.552 156.586 15.072 159.082 15.136V18.912C157.994 18.8907 157.236 19.072 156.81 19.456C156.383 19.84 156.17 20.5333 156.17 21.536V22.272H159.274V25.952ZM166.657 16.32V40H162.177V16.32H166.657ZM178.955 40.288C177.248 40.288 175.712 39.9147 174.347 39.168C172.982 38.4 171.904 37.3227 171.115 35.936C170.347 34.5493 169.963 32.9493 169.963 31.136C169.963 29.3227 170.358 27.7227 171.147 26.336C171.958 24.9493 173.056 23.8827 174.443 23.136C175.83 22.368 177.376 21.984 179.083 21.984C180.79 21.984 182.336 22.368 183.723 23.136C185.11 23.8827 186.198 24.9493 186.987 26.336C187.798 27.7227 188.203 29.3227 188.203 31.136C188.203 32.9493 187.787 34.5493 186.955 35.936C186.144 37.3227 185.035 38.4 183.627 39.168C182.24 39.9147 180.683 40.288 178.955 40.288ZM178.955 36.384C179.766 36.384 180.523 36.192 181.227 35.808C181.952 35.4027 182.528 34.8053 182.955 34.016C183.382 33.2267 183.595 32.2667 183.595 31.136C183.595 29.4507 183.147 28.16 182.251 27.264C181.376 26.3467 180.299 25.888 179.019 25.888C177.739 25.888 176.662 26.3467 175.787 27.264C174.934 28.16 174.507 29.4507 174.507 31.136C174.507 32.8213 174.923 34.1227 175.755 35.04C176.608 35.936 177.675 36.384 178.955 36.384ZM216.065 22.272L210.881 40H206.049L202.817 27.616L199.585 40H194.721L189.505 22.272H194.049L197.185 35.776L200.577 22.272H205.313L208.641 35.744L211.777 22.272H216.065Z" fill="black"/>
</svg>
